solid roller_conveyor_collision_solid_v2.stl
facet normal -0.9999999999999999 0.0 0.0
outer loop
vertex -1.2000000476837158 -0.4699999988079071 0.0
vertex -1.2000000476837158 -0.4699999988079071 0.7319999933242798
vertex -1.2000000476837158 0.4699999988079071 0.7319999933242798
endloop
endfacet
facet normal -0.9999999999999999 0.0 0.0
outer loop
vertex -1.2000000476837158 -0.4699999988079071 0.0
vertex -1.2000000476837158 0.4699999988079071 0.7319999933242798
vertex -1.2000000476837158 0.4699999988079071 0.0
endloop
endfacet
facet normal 0.0 1.0 0.0
outer loop
vertex -1.2000000476837158 0.4699999988079071 0.0
vertex -1.2000000476837158 0.4699999988079071 0.7319999933242798
vertex 1.2000000476837158 0.4699999988079071 0.7319999933242798
endloop
endfacet
facet normal -0.0 1.0 0.0
outer loop
vertex -1.2000000476837158 0.4699999988079071 0.0
vertex 1.2000000476837158 0.4699999988079071 0.7319999933242798
vertex 1.2000000476837158 0.4699999988079071 0.0
endloop
endfacet
facet normal 0.9999999999999999 0.0 -0.0
outer loop
vertex 1.2000000476837158 0.4699999988079071 0.0
vertex 1.2000000476837158 0.4699999988079071 0.7319999933242798
vertex 1.2000000476837158 -0.4699999988079071 0.7319999933242798
endloop
endfacet
facet normal 0.9999999999999999 0.0 0.0
outer loop
vertex 1.2000000476837158 0.4699999988079071 0.0
vertex 1.2000000476837158 -0.4699999988079071 0.7319999933242798
vertex 1.2000000476837158 -0.4699999988079071 0.0
endloop
endfacet
facet normal 0.0 -1.0 0.0
outer loop
vertex 1.2000000476837158 -0.4699999988079071 0.0
vertex 1.2000000476837158 -0.4699999988079071 0.7319999933242798
vertex -1.2000000476837158 -0.4699999988079071 0.7319999933242798
endloop
endfacet
facet normal -0.0 -1.0 -0.0
outer loop
vertex 1.2000000476837158 -0.4699999988079071 0.0
vertex -1.2000000476837158 -0.4699999988079071 0.7319999933242798
vertex -1.2000000476837158 -0.4699999988079071 0.0
endloop
endfacet
facet normal 0.0 0.0 -0.9999999999999999
outer loop
vertex -1.2000000476837158 0.4699999988079071 0.0
vertex 1.2000000476837158 0.4699999988079071 0.0
vertex 1.2000000476837158 -0.4699999988079071 0.0
endloop
endfacet
facet normal -0.0 -0.0 -0.9999999999999999
outer loop
vertex -1.2000000476837158 0.4699999988079071 0.0
vertex 1.2000000476837158 -0.4699999988079071 0.0
vertex -1.2000000476837158 -0.4699999988079071 0.0
endloop
endfacet
facet normal 0.0 0.0 0.9999999999999999
outer loop
vertex 1.2000000476837158 0.4699999988079071 0.7319999933242798
vertex -1.2000000476837158 0.4699999988079071 0.7319999933242798
vertex -1.2000000476837158 -0.4699999988079071 0.7319999933242798
endloop
endfacet
facet normal -0.0 0.0 0.9999999999999999
outer loop
vertex 1.2000000476837158 0.4699999988079071 0.7319999933242798
vertex -1.2000000476837158 -0.4699999988079071 0.7319999933242798
vertex 1.2000000476837158 -0.4699999988079071 0.7319999933242798
endloop
endfacet

endsolid
